<svg width="70" height="70" viewBox="0 0 70 70" fill="none" xmlns="http://www.w3.org/2000/svg">
    <path fill-rule="evenodd" clip-rule="evenodd" d="M11.1685 7.03723C11.5369 6.69267 12.1343 6.69267 12.5027 7.03723L13.3922 7.86911L14.2816 7.03734C14.6501 6.69278 15.2475 6.69278 15.6159 7.03734C15.9844 7.3819 15.9844 7.94054 15.6159 8.28511L14.7264 9.1169L15.6159 9.94875C15.9844 10.2933 15.9844 10.852 15.6159 11.1965C15.2475 11.5411 14.6501 11.5411 14.2817 11.1965L13.3922 10.3647L12.5026 11.1966C12.1342 11.5411 11.5368 11.5411 11.1684 11.1966C10.7999 10.852 10.7999 10.2934 11.1684 9.94879L12.0579 9.11688L11.1684 8.28503C10.8 7.94046 10.8 7.3818 11.1685 7.03723ZM21.834 14.8961C22.8164 13.9774 24.4082 13.976 25.3921 14.8961L28.2829 17.5996C29.2653 18.5183 29.2668 20.0069 28.2829 20.927L25.3921 23.6305C24.4097 24.5492 22.8179 24.5506 21.834 23.6305L18.9432 20.927C17.9608 20.0083 17.9593 18.5197 18.9432 17.5996L21.834 14.8961ZM26.9152 51.4613V68.2317C26.9152 69.7278 25.0493 70.5451 23.8203 69.5873L20.0464 66.6463C19.6162 66.311 19.3675 65.8144 19.3675 65.2906V51.1894L0.973336 33.9876C-0.95309 32.186 0.137383 29.7285 2.8635 29.7285H43.7098C46.4313 29.7285 47.527 32.1855 45.6 33.9876L26.9152 51.4613ZM44.2657 32.7395L25.0282 50.7301V68.2315L21.2544 65.2904V50.4583L2.30759 32.7395C1.57137 32.051 1.81631 31.4929 2.86349 31.4929H43.7098C44.7531 31.4929 45.002 32.051 44.2657 32.7395ZM27.5217 43.4887C27.1707 43.1605 27.1707 42.6284 27.5217 42.3002L34.409 35.8593C34.7599 35.5311 35.3289 35.5311 35.6798 35.8593L35.7432 35.9186C36.0942 36.2468 36.0942 36.7789 35.7432 37.1071L28.8559 43.548C28.505 43.8762 27.936 43.8762 27.5851 43.548L27.5217 43.4887ZM47.9859 55.2907C47.9859 55.9404 47.4227 56.4671 46.7279 56.4671C46.0332 56.4671 45.47 55.9404 45.47 55.2907C45.47 54.641 46.0332 54.1143 46.7279 54.1143C47.4227 54.1143 47.9859 54.641 47.9859 55.2907ZM52.3887 56.4671C53.0834 56.4671 53.6466 55.9404 53.6466 55.2907C53.6466 54.641 53.0834 54.1143 52.3887 54.1143C51.6939 54.1143 51.1307 54.641 51.1307 55.2907C51.1307 55.9404 51.6939 56.4671 52.3887 56.4671ZM59.3074 55.2907C59.3074 55.9404 58.7442 56.4671 58.0495 56.4671C57.3547 56.4671 56.7915 55.9404 56.7915 55.2907C56.7915 54.641 57.3547 54.1143 58.0495 54.1143C58.7442 54.1143 59.3074 54.641 59.3074 55.2907ZM20.2775 18.8471L23.1683 16.1436C23.4139 15.9139 23.811 15.9127 24.0579 16.1436L26.9487 18.8471C27.1943 19.0768 27.1956 19.4481 26.9487 19.679L24.0579 22.3824C23.8122 22.6121 23.4152 22.6133 23.1683 22.3824L20.2775 19.679C20.0318 19.4492 20.0306 19.0779 20.2775 18.8471Z" fill="#3B4340"/>
    <path fill-rule="evenodd" clip-rule="evenodd" d="M54.6797 23.5283H57.4236C64.3691 23.5283 70.0002 18.2613 70.0002 11.7641C70.0002 5.26556 64.3695 0 57.4236 0H45.4672C38.5217 0 32.8906 5.26698 32.8906 11.7641C32.8906 18.2627 38.5213 23.5283 45.4672 23.5283H48.2111L50.1113 25.3053C50.848 25.9942 52.0427 25.9943 52.7795 25.3053L54.6797 23.5283ZM40.6299 15.9229C38.1828 15.8126 36.8856 14.5443 36.7382 12.1179C36.9151 9.71911 38.2123 8.42323 40.6299 8.23022C43.0181 8.42323 44.3153 9.71911 44.5217 12.1179C44.3448 14.5443 43.0476 15.8126 40.6299 15.9229ZM47.8386 10.1326C49.6076 10.298 50.5806 11.2768 50.7575 13.069C50.6101 14.8888 49.6371 15.84 47.8386 15.9227C46.0107 15.84 45.0377 14.8888 44.9198 13.069C45.0672 11.2768 46.0402 10.298 47.8386 10.1326ZM51.4208 17.2462V11.0425C51.4208 10.5186 51.7009 10.2291 52.261 10.1739C52.7033 10.2015 52.9686 10.4221 53.0571 10.8357C53.3519 10.3945 53.8679 10.1601 54.605 10.1326C56.2266 10.2429 57.111 11.2492 57.2585 13.1517C57.0816 14.9164 56.1823 15.84 54.5607 15.9227C53.9416 15.8952 53.4404 15.7435 53.0571 15.4678V17.2462C53.0276 17.7976 52.7623 18.0871 52.261 18.1147C51.7009 18.0596 51.4208 17.7701 51.4208 17.2462ZM61.9906 11.2079C61.9316 11.649 61.7105 11.8834 61.3272 11.911C61.2093 11.9385 61.0177 11.8834 60.7523 11.7455C60.3395 11.5801 60.0447 11.4836 59.8678 11.456C59.4845 11.4836 59.2929 11.6215 59.2929 11.8696C59.2929 12.0626 59.6025 12.2694 60.2216 12.49C61.4894 12.9587 62.1233 13.5377 62.1233 14.227C62.0053 15.3299 61.2388 15.8952 59.8236 15.9227C58.4379 15.84 57.686 15.4816 57.5681 14.8474C57.6271 14.4338 57.8482 14.1995 58.2315 14.1443C58.4379 14.1443 58.6885 14.2408 58.9833 14.4338C59.3371 14.5993 59.6614 14.682 59.9563 14.682C60.369 14.7096 60.5754 14.5579 60.5754 14.227C60.5754 14.0616 60.2511 13.8686 59.6025 13.648C58.3642 13.2069 57.745 12.6279 57.745 11.911C57.804 10.8081 58.5411 10.2153 59.9563 10.1326C61.224 10.2429 61.9022 10.6013 61.9906 11.2079ZM63.3173 13.0278V8.93332C63.3173 8.49216 63.5973 8.2578 64.1575 8.23022C64.6293 8.28537 64.8946 8.51973 64.9536 8.93332V13.0278C64.8946 13.4689 64.6293 13.7033 64.1575 13.7309C63.6268 13.7033 63.3467 13.4689 63.3173 13.0278ZM64.1576 15.9229C63.5974 15.8954 63.3026 15.6472 63.2731 15.1785C63.3026 14.6822 63.5974 14.4065 64.1576 14.3513C64.6883 14.4065 64.9831 14.6822 65.0421 15.1785C64.9831 15.6472 64.6883 15.8954 64.1576 15.9229ZM53.0571 13.028C53.1161 14.0481 53.5436 14.572 54.3397 14.5996C55.1062 14.5444 55.5337 14.0343 55.6222 13.0693C55.5337 12.1319 55.1062 11.6218 54.3397 11.5391C53.5436 11.5942 53.1161 12.0905 53.0571 13.028ZM47.8387 11.5391C47.0426 11.5942 46.6151 12.1043 46.5562 13.0693C46.6151 14.0619 47.0426 14.572 47.8387 14.5996C48.6052 14.572 49.0327 14.0619 49.1212 13.0693C49.0327 12.1043 48.6052 11.5942 47.8387 11.5391ZM40.63 14.5581C41.9862 14.503 42.7086 13.6896 42.797 12.118C42.6791 10.5739 41.9567 9.76057 40.63 9.67786C39.2738 9.76057 38.5662 10.5739 38.5072 12.118C38.5662 13.6896 39.2738 14.503 40.63 14.5581Z" fill="#00CCC5"/>
    </svg>
