<?xml version="1.0" standalone="no"?><!DOCTYPE svg PUBLIC "-//W3C//DTD SVG 1.1//EN" "http://www.w3.org/Graphics/SVG/1.1/DTD/svg11.dtd"><svg t="1596210549471" class="icon" viewBox="0 0 1024 1024" version="1.1" xmlns="http://www.w3.org/2000/svg" p-id="14580" xmlns:xlink="http://www.w3.org/1999/xlink" width="200" height="200"><defs><style type="text/css"></style></defs><path d="M750.318933 555.3152H179.268267A43.008 43.008 0 0 1 136.533333 512c0-23.893333 19.114667-43.3152 42.7008-43.3152h571.050667l-182.8864-153.053867a43.7248 43.7248 0 0 1-5.7344-60.962133 42.325333 42.325333 0 0 1 60.074667-5.802667l234.666666 196.334934a87.4496 87.4496 0 0 1 0 133.597866l-234.632533 196.369067a42.325333 42.325333 0 0 1-60.1088-5.8368c-15.018667-18.432-12.458667-45.738667 5.7344-60.962133l182.920533-153.053867z" fill="#dbdbdb" p-id="14581"></path></svg>