<svg width="19" height="18" viewBox="0 0 19 18" fill="none" xmlns="http://www.w3.org/2000/svg">
<path fill-rule="evenodd" clip-rule="evenodd" d="M3.89642 3.75C3.46604 3.75 3.11714 4.08579 3.11714 4.5V15C3.11714 15.4142 3.46604 15.75 3.89642 15.75H14.8063C15.2367 15.75 15.5855 15.4142 15.5855 15V4.5C15.5855 4.08579 15.2367 3.75 14.8063 3.75H3.89642ZM1.55859 4.5C1.55859 3.25736 2.60527 2.25 3.89642 2.25H14.8063C16.0974 2.25 17.1441 3.25736 17.1441 4.5V15C17.1441 16.2426 16.0974 17.25 14.8063 17.25H3.89642C2.60527 17.25 1.55859 16.2426 1.55859 15V4.5Z" fill="#333333"/>
<path fill-rule="evenodd" clip-rule="evenodd" d="M12.4684 0.75C12.8988 0.75 13.2477 1.08579 13.2477 1.5V4.5C13.2477 4.91421 12.8988 5.25 12.4684 5.25C12.0381 5.25 11.6892 4.91421 11.6892 4.5V1.5C11.6892 1.08579 12.0381 0.75 12.4684 0.75Z" fill="#333333"/>
<path fill-rule="evenodd" clip-rule="evenodd" d="M6.23424 0.75C6.66463 0.75 7.01352 1.08579 7.01352 1.5V4.5C7.01352 4.91421 6.66463 5.25 6.23424 5.25C5.80386 5.25 5.45497 4.91421 5.45497 4.5V1.5C5.45497 1.08579 5.80386 0.75 6.23424 0.75Z" fill="#333333"/>
<path fill-rule="evenodd" clip-rule="evenodd" d="M1.55859 7.5C1.55859 7.08579 1.90749 6.75 2.33787 6.75H16.3648C16.7952 6.75 17.1441 7.08579 17.1441 7.5C17.1441 7.91421 16.7952 8.25 16.3648 8.25H2.33787C1.90749 8.25 1.55859 7.91421 1.55859 7.5Z" fill="#333333"/>
</svg>