<svg width="19" height="18" viewBox="0 0 19 18" fill="none" xmlns="http://www.w3.org/2000/svg">
<path fill-rule="evenodd" clip-rule="evenodd" d="M0.779297 9C0.779297 4.44365 4.61712 0.75 9.35132 0.75C14.0855 0.75 17.9233 4.44365 17.9233 9C17.9233 13.5563 14.0855 17.25 9.35132 17.25C4.61712 17.25 0.779297 13.5563 0.779297 9Z" fill="#333333"/>
<path fill-rule="evenodd" clip-rule="evenodd" d="M13.4895 6.03223C13.7939 6.32512 13.7939 6.79999 13.4895 7.09289L8.65251 11.9679C8.34818 12.2608 7.85477 12.2608 7.55044 11.9679L5.21262 9.71789C4.90829 9.425 4.90829 8.95012 5.21262 8.65723C5.51695 8.36433 6.01035 8.36433 6.31468 8.65723L8.10148 10.3769L12.3875 6.03223C12.6918 5.73933 13.1852 5.73933 13.4895 6.03223Z" fill="white"/>
</svg>

