<?xml version="1.0" standalone="no"?><!DOCTYPE svg PUBLIC "-//W3C//DTD SVG 1.1//EN" "http://www.w3.org/Graphics/SVG/1.1/DTD/svg11.dtd"><svg t="1596198392654" class="icon" viewBox="0 0 1024 1024" version="1.1" xmlns="http://www.w3.org/2000/svg" p-id="2091" xmlns:xlink="http://www.w3.org/1999/xlink" width="200" height="200"><defs><style type="text/css"></style></defs><path d="M113.05 425.7V299.57c0-43.06 34.91-77.97 77.97-77.97h647.26c43.06 0 77.97 34.91 77.97 77.97v421.01c0 43.06-34.91 77.97-77.97 77.97H191.02c-43.06 0-77.97-34.91-77.97-77.97V562.92" fill="#EDF1F7" p-id="2092"></path><path d="M171 795.35h671.99c28.93 0 54.14-20.9 67.81-44.16L570.1 423.67c-33.3-33.3-87.29-34.61-120.59-1.31L105.32 755.33c14.06 21.34 38.21 40.02 65.68 40.02z" fill="#D0DDEA" p-id="2093"></path><path d="M838.27 814.46H172.41c-51.71 0-93.77-42.07-93.77-93.77V563.03c0-8.73 7.08-15.8 15.8-15.8s15.8 7.08 15.8 15.8v157.66c0 34.28 27.89 62.16 62.17 62.16h665.87c34.28 0 62.16-27.89 62.16-62.16V299.68c0-34.28-27.89-62.16-62.16-62.16H172.41c-34.28 0-62.17 27.89-62.17 62.16v126.14c0 8.73-7.08 15.8-15.8 15.8s-15.8-7.08-15.8-15.8V299.68c0-51.7 42.07-93.77 93.77-93.77h665.87c51.7 0 93.77 42.07 93.77 93.77v421.01c-0.01 51.71-42.07 93.77-93.78 93.77z" fill="#5E125C" p-id="2094"></path><path d="M94.56 511.09v-37.1" fill="#E6EDEC" p-id="2095"></path><path d="M94.56 526.9c-8.73 0-15.8-7.08-15.8-15.8V474c0-8.73 7.08-15.8 15.8-15.8s15.8 7.08 15.8 15.8v37.1c0 8.72-7.07 15.8-15.8 15.8zM842.99 811.15H171c-29.36 0-58.85-16.54-78.88-46.92l-7.2-10.12 353.57-343.08c38.78-38.77 102.91-37.81 142.78 2.07l349.46 336.85-6.31 9.2c-15.2 25.88-44.58 52-81.43 52z m-716.63-54.03c11.29 12.88 27.18 22.42 44.64 22.42h671.99c19.06 0 36.04-11.81 47.27-26.21L559.14 435.05c-27.76-27.75-71.84-28.91-98.46-2.31L126.36 757.12z" fill="#5E125C" p-id="2096"></path><path d="M832.02 218.54H178.74c-28.16 0-52.71 5.98-66.01 29.04l331.22 348.57c32.41 33.01 84.97 30.62 117.39-2.39L895.96 245.3c-13.7-21.14-37.2-26.76-63.94-26.76z" fill="#F8F9FB" p-id="2097"></path><path d="M568.76 586.74c-41.1 41.21-99.81 35.79-132.22 2.78L191.02 340.43l245.52 293.61c29.29 32.86 96.07 30.39 132.22-2.78l243.6-290.83-243.6 246.31z" fill="#D0DDEA" p-id="2098"></path><path d="M499.97 636.16c-25.57 0-49.47-9.99-67.29-28.13L93.14 251.52l5.91-11.83c18.08-31.34 52.09-36.95 79.69-36.95h653.28c26.12 0 58.5 5.3 77.21 34.19 4.75 7.33 2.65 17.91-4.68 22.65-7.32 4.75-17.11 1.45-21.85-5.87-8.46-13.07-22.67-19.36-50.68-19.36H178.74c-22.31 0-36.14 4.72-45.07 12.31l321.73 338.6c11.66 11.87 27.55 18.9 44.57 18.9 18.44 0 36.7-7.62 50.09-21.26L837.7 285.68c6.07-6.28 16.08-6.39 22.35-0.32 6.27 6.07 6.44 16.1 0.37 22.37L572.7 605.14c-19.38 19.73-45.86 31.02-72.73 31.02z" fill="#5E125C" p-id="2099"></path></svg>