<svg width="13" height="9" viewBox="0 0 13 9" fill="none" xmlns="http://www.w3.org/2000/svg">
<path d="M11.1539 0H0.860873C0.62214 0.0110421 0.397461 0.118473 0.236206 0.298687C0.0749509 0.4789 -0.00968913 0.717155 0.000883757 0.961098V8.06636C-0.000246174 8.30961 0.0919877 8.54361 0.257793 8.71816C0.423597 8.89271 0.64976 8.99389 0.887748 9H11.1539C11.4033 9 11.6426 8.89874 11.819 8.7185C11.9954 8.53826 12.0945 8.2938 12.0945 8.0389V0.961098C12.0945 0.706199 11.9954 0.46174 11.819 0.281499C11.6426 0.101258 11.4033 0 11.1539 0ZM1.61336 0.900686H10.482C10.5063 0.900476 10.5301 0.908022 10.55 0.922272C10.57 0.936522 10.585 0.956767 10.5932 0.980187C10.6013 1.00361 10.6021 1.02904 10.5954 1.05293C10.5887 1.07683 10.5749 1.098 10.5559 1.1135L6.51665 4.42929C6.38371 4.53967 6.21764 4.59992 6.04634 4.59992C5.87505 4.59992 5.70897 4.53967 5.57604 4.42929L1.54215 1.1135C1.52331 1.09815 1.50958 1.07722 1.50283 1.05359C1.49608 1.02996 1.49664 1.00477 1.50444 0.981477C1.51223 0.958183 1.52688 0.937918 1.54638 0.923456C1.56588 0.908995 1.58927 0.901042 1.61336 0.900686ZM11.3863 7.79176C11.3863 7.85643 11.3739 7.92046 11.3496 7.98018C11.3253 8.03991 11.2898 8.09415 11.245 8.13981C11.2002 8.18547 11.147 8.22165 11.0884 8.24627C11.0299 8.2709 10.9672 8.28348 10.9039 8.28329H1.19949C1.13621 8.28348 1.07351 8.2709 1.01499 8.24627C0.956469 8.22165 0.90328 8.18547 0.858467 8.13981C0.813654 8.09415 0.7781 8.03991 0.75384 7.98018C0.729581 7.92046 0.717094 7.85643 0.717094 7.79176V1.90023C0.717309 1.85959 0.728766 1.81983 0.750142 1.78556C0.771518 1.75128 0.801943 1.72388 0.837905 1.70651C0.873868 1.68914 0.913904 1.68251 0.953393 1.6874C0.992883 1.69228 1.03022 1.70847 1.06109 1.7341L5.15813 5.17483C5.40979 5.38662 5.72569 5.50243 6.05172 5.50243C6.37775 5.50243 6.69364 5.38662 6.9453 5.17483L11.0423 1.7341C11.0732 1.70847 11.1106 1.69228 11.15 1.6874C11.1895 1.68251 11.2296 1.68914 11.2655 1.70651C11.3015 1.72388 11.3319 1.75128 11.3533 1.78556C11.3747 1.81983 11.3861 1.85959 11.3863 1.90023V7.79176Z" fill="black"/>
</svg>
