<svg width="15" height="13" viewBox="0 0 15 13" fill="none" xmlns="http://www.w3.org/2000/svg">
<g clip-path="url(#clip0)">
<path fill-rule="evenodd" clip-rule="evenodd" d="M6.7338 0.95298C6.94737 0.812548 7.24643 0.812548 7.46 0.95298L12.7828 4.45298C12.9269 4.54771 13.0112 4.69336 13.0112 4.84766V10.3477C13.0112 10.7455 12.8242 11.127 12.4915 11.4083C12.1588 11.6896 11.7075 11.8477 11.2369 11.8477H2.9569C2.48633 11.8477 2.03504 11.6896 1.70229 11.4083C1.36955 11.127 1.18262 10.7455 1.18262 10.3477V4.84766C1.18262 4.69336 1.26688 4.54771 1.41094 4.45298L6.7338 0.95298ZM2.36547 5.0922V10.3477C2.36547 10.4803 2.42778 10.6074 2.5387 10.7012C2.64961 10.795 2.80004 10.8477 2.9569 10.8477H11.2369C11.3937 10.8477 11.5442 10.795 11.6551 10.7012C11.766 10.6074 11.8283 10.4803 11.8283 10.3477V5.0922L7.0969 1.98109L2.36547 5.0922Z" fill="black"/>
<path fill-rule="evenodd" clip-rule="evenodd" d="M4.73118 6.34766C4.73118 6.07151 4.99598 5.84766 5.32261 5.84766H8.87118C9.19782 5.84766 9.46261 6.07151 9.46261 6.34766V11.3477C9.46261 11.6238 9.19782 11.8477 8.87118 11.8477C8.54454 11.8477 8.27975 11.6238 8.27975 11.3477V6.84766H5.91404V11.3477C5.91404 11.6238 5.64925 11.8477 5.32261 11.8477C4.99598 11.8477 4.73118 11.6238 4.73118 11.3477V6.34766Z" fill="black"/>
</g>
<defs>
<clipPath id="clip0">
<rect width="14.1943" height="12" fill="white" transform="translate(0 0.347656)"/>
</clipPath>
</defs>
</svg>

