<?xml version="1.0" standalone="no"?><!DOCTYPE svg PUBLIC "-//W3C//DTD SVG 1.1//EN" "http://www.w3.org/Graphics/SVG/1.1/DTD/svg11.dtd"><svg t="1596198331939" class="icon" viewBox="0 0 1024 1024" version="1.1" xmlns="http://www.w3.org/2000/svg" p-id="1469" xmlns:xlink="http://www.w3.org/1999/xlink" width="200" height="200"><defs><style type="text/css"></style></defs><path d="M212.53 350.6c0-61.2 39.79-91.8 85.26-91.8h464.32c23.68 0 42.88 19.2 42.88 42.88v481.59c0 23.68-19.2 42.88-42.88 42.88H297.79c-99.21 0-85.26 2.9-85.26-91.67" fill="#D0DDEA" p-id="1470"></path><path d="M757.42 842.96H243.36c-35.43 0-64.26-28.82-64.26-64.26V585.89c0-9.22 7.47-16.69 16.69-16.69 9.22 0 16.69 7.47 16.69 16.69V778.7c0 17.02 13.85 30.88 30.88 30.88h514.05c17.02 0 30.88-13.85 30.88-30.88V341.27c0-36.2-29.45-65.65-65.65-65.65h-444.5c-36.2 0-65.65 29.45-65.65 65.65v99.71c0 9.22-7.47 16.69-16.69 16.69-9.22 0-16.69-7.47-16.69-16.69v-99.71c0-54.61 44.42-99.03 99.03-99.03h444.51c54.61 0 99.03 44.42 99.03 99.03V778.7c0 35.43-28.83 64.26-64.26 64.26z" fill="#5E125C" p-id="1471"></path><path d="M129.03 292.18c0-76.5 4.59-91.8 50.07-91.8h670.48c30.67 0 55.54 24.87 55.54 55.54v456.26c0 30.67-28.7 55.66-59.37 55.66H212.49c-79.28 0-83.45-48.68-83.45-116.83" fill="#F8F9FB" p-id="1472"></path><path d="M845.76 784.54H171.67c-41.94 0-76.06-34.12-76.06-76.06v-181c0-9.22 7.47-16.69 16.69-16.69s16.69 7.47 16.69 16.69v181.01c0 23.54 19.14 42.68 42.68 42.68h674.09c23.54 0 42.68-19.14 42.68-42.68v-448.6c0-23.54-19.14-42.69-42.68-42.69H171.67c-23.54 0-42.68 19.15-42.68 42.69v122.67c0 9.22-7.47 16.69-16.69 16.69s-16.69-7.47-16.69-16.69V259.89c0-41.95 34.12-76.07 76.06-76.07h674.09c41.94 0 76.06 34.12 76.06 76.07v448.6c0 41.93-34.12 76.05-76.06 76.05z" fill="#5E125C" p-id="1473"></path><path d="M112.42 472.62v-39.18" fill="#E6EDEC" p-id="1474"></path><path d="M112.43 489.31c-9.22 0-16.69-7.47-16.69-16.69v-39.18c0-9.22 7.47-16.69 16.69-16.69s16.69 7.47 16.69 16.69v39.18c0 9.22-7.48 16.69-16.69 16.69z" fill="#5E125C" p-id="1475"></path><path d="M129.03 317.22h759.41v91.79H129.03z" fill="#995D91" p-id="1476"></path><path d="M896.78 425.7H187.45c-9.22 0-16.69-7.47-16.69-16.69s7.47-16.69 16.69-16.69h709.33c9.22 0 16.69 7.47 16.69 16.69S906 425.7 896.78 425.7zM830.02 333.91H129.03c-9.22 0-16.69-7.47-16.69-16.69s7.47-16.69 16.69-16.69h700.99c9.22 0 16.69 7.47 16.69 16.69s-7.47 16.69-16.69 16.69z" fill="#5E125C" p-id="1477"></path><path d="M821.68 567.57H412.77c-9.22 0-16.69-7.47-16.69-16.69s7.47-16.69 16.69-16.69h408.91c9.22 0 16.69 7.47 16.69 16.69s-7.48 16.69-16.69 16.69zM713.19 634.33H412.77c-9.22 0-16.69-7.47-16.69-16.69s7.47-16.69 16.69-16.69h300.42c9.22 0 16.69 7.47 16.69 16.69s-7.47 16.69-16.69 16.69zM358.7 676.06H191.45c-2.21 0-4-1.79-4-4V504.81c0-2.21 1.79-4 4-4H358.7c2.21 0 4 1.79 4 4v167.25c0 2.21-1.79 4-4 4z" fill="#D0DDEA" p-id="1478"></path></svg>