<svg width="12" height="13" viewBox="0 0 12 13" fill="none" xmlns="http://www.w3.org/2000/svg">
<path d="M8.77498 0C7.07464 0 5.67622 1.32096 5.55937 2.99076L3.68907 2.40948C3.65113 2.3987 3.61105 2.39549 3.57188 2.40011C3.55132 2.40116 0.210962 3.43141 0.210962 3.43141C0.088421 3.4695 -0.00173628 3.59372 2.53745e-05 3.72204V12.3006C0.000385373 12.4876 0.210479 12.642 0.389086 12.5865L3.60001 11.5927L6.81093 12.5865C6.86849 12.6044 6.93149 12.6044 6.98905 12.5865L10.289 11.5646C10.4101 11.5269 10.4997 11.4054 10.5 11.2786V6.30028C10.6308 6.14372 10.7613 5.98416 10.8843 5.82214C11.49 5.02441 11.9838 4.15814 12 3.22515C12 3.22203 12 3.21889 12 3.21577C12 1.43993 10.5514 1.49999e-06 8.77498 0ZM8.77498 0.600024C10.2261 0.600024 11.3974 1.76301 11.4 3.21108C11.3999 3.21258 11.4 3.21428 11.4 3.21576C11.3859 3.93518 10.9772 4.70442 10.4062 5.45649C9.90417 6.11775 9.30238 6.75464 8.77498 7.35032C8.24747 6.7541 7.64541 6.12325 7.14374 5.46117C6.5739 4.70915 6.16408 3.93547 6.14999 3.21576C6.14999 3.21416 6.14999 3.21266 6.14999 3.21109C6.15258 1.76245 7.32386 0.600034 8.77498 0.600034V0.600024ZM8.77498 1.65007C7.90869 1.65007 7.19999 2.35881 7.19999 3.22515C7.19999 4.09148 7.90869 4.80021 8.77498 4.80021C9.64127 4.80021 10.35 4.09148 10.35 3.22515C10.35 2.35881 9.64127 1.65007 8.77498 1.65007ZM8.77498 2.2501C9.31701 2.2501 9.74998 2.68309 9.74998 3.22515C9.74998 3.7672 9.31701 4.20019 8.77498 4.20019C8.23295 4.20019 7.79999 3.7672 7.79999 3.22515C7.79999 2.68309 8.23295 2.2501 8.77498 2.2501ZM3.30001 3.10795V11.0536L0.600022 11.8881V3.94236L3.30001 3.10795ZM3.90001 3.10795L5.5875 3.62829C5.70788 4.37391 6.11387 5.07286 6.59999 5.72838C6.60074 5.72943 6.59924 5.73206 6.59999 5.73307V11.8881L3.90001 11.0536V3.10794V3.10795ZM7.19999 6.47842C7.66733 7.02443 8.15272 7.53414 8.54529 7.99254C8.65752 8.12286 8.88775 8.12286 8.99998 7.99254C9.26794 7.67964 9.5792 7.34508 9.89997 6.98937V11.0536L7.19999 11.8881V6.47842Z" fill="black"/>
</svg>
