<?xml version="1.0" standalone="no"?><!DOCTYPE svg PUBLIC "-//W3C//DTD SVG 1.1//EN" "http://www.w3.org/Graphics/SVG/1.1/DTD/svg11.dtd"><svg t="1596198487821" class="icon" viewBox="0 0 1024 1024" version="1.1" xmlns="http://www.w3.org/2000/svg" p-id="2576" xmlns:xlink="http://www.w3.org/1999/xlink" width="200" height="200"><defs><style type="text/css"></style></defs><path d="M304.44 496.21c-8.95 0-16.21-7.26-16.21-16.21 0-33.33 6.84-65.55 20.33-95.75 3.64-8.18 13.24-11.84 21.41-8.19 8.18 3.65 11.84 13.24 8.19 21.41-11.62 26.02-17.51 53.79-17.51 82.54-0.01 8.95-7.26 16.2-16.21 16.2z" fill="#FFFFFF" p-id="2577"></path><path d="M726.18 599.14l51.61-142.51c6.32-17.33 4.8-36.84-3.77-53.17l-43.79-83.43c-8.57-16.33-23.59-28.32-41.44-32.96L542.7 249.65c-15.76-4.1-32.1-1.5-46.52 6.07L138.92 443.25c-32.02 16.81-38.59 51.61-21.79 83.62l138.43 263.72c16.81 32.02 50.63 49.12 82.65 32.32l357.24-187.53c14.43-7.58 25.15-20.94 30.73-36.24zM564 464.39c-15.09-28.75-4.02-64.28 24.73-79.37 28.75-15.09 64.28-4.02 79.37 24.73s4.02 64.28-24.73 79.37c-28.75 15.09-64.28 4.02-79.37-24.73z" fill="#ABCF79" p-id="2578"></path><path d="M312.19 846.05c-28.23 0-55.42-17.23-71.54-47.93L102.21 534.4c-10.22-19.46-13.37-40.5-8.88-59.25 4.82-20.12 18.23-36.83 37.74-47.08l357.24-187.53c18.64-9.79 39.45-12.43 58.57-7.46 8.99 2.34 14.38 11.52 12.04 20.5-2.34 8.98-11.54 14.38-20.5 12.04-11.19-2.91-23.1-1.28-34.48 4.68L146.7 457.84c-10.96 5.76-18.11 14.45-20.67 25.14-2.59 10.83-0.48 23.53 5.94 35.78l138.44 263.72c11.25 21.41 34.8 38.45 59.94 25.25L687.61 620.2c10.11-5.31 18.39-15.19 22.73-27.1l51.59-142.48c4.69-12.84 3.65-27.28-2.84-39.63-4.32-8.23-1.15-18.39 7.07-22.7 8.24-4.33 18.38-1.16 22.7 7.07 10.89 20.73 12.59 45.06 4.68 66.75l-51.59 142.47c-7.29 20-21.04 36.12-38.71 45.4L346 837.51c-11.01 5.78-22.49 8.54-33.81 8.54zM616.1 512.43c-7.56 0-15.16-1.15-22.58-3.46-19.28-6-35.07-19.16-44.45-37.04-19.38-36.91-5.12-82.7 31.8-102.07 17.87-9.38 38.33-11.24 57.62-5.25 19.28 6.01 35.07 19.16 44.45 37.05 19.38 36.91 5.12 82.7-31.8 102.07-10.99 5.77-22.97 8.7-35.04 8.7z m-0.13-117.63c-6.71 0-13.35 1.63-19.46 4.83-20.49 10.76-28.42 36.18-17.66 56.67 5.21 9.93 13.98 17.23 24.68 20.57 10.7 3.33 22.07 2.3 31.99-2.91 9.93-5.21 17.23-13.98 20.57-24.68 3.33-10.71 2.3-22.06-2.91-31.99s-13.97-17.23-24.68-20.57a42.268 42.268 0 0 0-12.53-1.92z" fill="#5E125C" p-id="2579"></path><path d="M765.33 553.98l6.24-150.22c0.88-18.43-7.02-35.41-20.06-48.45l-66.63-66.63c-13.04-13.04-30.02-20.94-48.45-20.06l-150.7 6.72c-16.27 0.77-31.18 7.11-42.7 18.62l-285.3 285.3c-25.57 25.57-22.23 63.68 3.34 89.25l210.61 210.61c25.57 25.57 63.69 28.91 89.25 3.34l285.3-285.3a65.433 65.433 0 0 0 19.1-43.18z m-194.37-79.86c-22.96-22.96-22.96-60.18 0-83.13 22.96-22.96 60.18-22.96 83.13 0s22.96 60.18 0 83.13c-22.95 22.96-60.17 22.96-83.13 0z" fill="#E2696C" p-id="2580"></path><path d="M684.88 288.68c-13.04-13.04-30.03-20.94-48.45-20.06l-150.7 6.72c-16.27 0.77-31.18 7.11-42.7 18.62l-285.3 285.3c-25.57 25.57-22.23 63.68 3.34 89.25l104.11 104.11C368.9 669.29 468.95 570.09 568.39 471.28c-20.29-23.09-19.47-58.25 2.57-80.29 22.12-22.12 57.43-22.86 80.52-2.36 22.23-22.14 44.48-44.31 66.78-66.57l-33.38-33.38z" fill="#FFFFFF" opacity=".1" p-id="2581"></path><path d="M419.23 916.6c-20.93 0-42.28-8.67-59.48-25.87l-210.6-210.61c-15.54-15.53-24.69-35.29-25.76-55.63-1.12-21.44 6.84-41.82 22.41-57.39l285.3-285.3c14.4-14.4 33-22.54 53.79-23.54l150.75-6.72c22.3-1.16 43.93 7.81 61.09 24.97l66.63 66.63c17.17 17.16 26.04 38.88 24.98 61.14L782.1 554.5c-0.99 20.5-9.52 39.77-24.02 54.27l-285.3 285.3c-15.05 15.05-34.12 22.53-53.55 22.53z m219.89-631.51c-0.64 0-1.28 0.02-1.93 0.05l-150.74 6.72c-12.24 0.58-23.17 5.33-31.56 13.72l-285.3 285.3c-8.88 8.88-13.24 19.89-12.6 31.86 0.63 12.03 6.29 23.96 15.94 33.61l210.6 210.61c19.95 19.95 47.48 21.32 65.48 3.34l285.3-285.31c8.56-8.56 13.6-19.94 14.2-32.05l6.24-150.16c0.61-12.78-4.78-25.48-15.16-35.86l-66.63-66.63c-9.86-9.85-21.8-15.2-33.84-15.2z m126.18 268.6h0.08-0.08z m-152.81-45.85c-19.36 0-38.72-7.37-53.46-22.11-29.48-29.48-29.48-77.43 0-106.91 14.28-14.29 33.26-22.15 53.46-22.15 20.2 0 39.18 7.87 53.46 22.15 29.48 29.48 29.48 77.43 0 106.91-14.74 14.73-34.1 22.11-53.46 22.11z m0-117.54c-11.21 0-21.75 4.37-29.68 12.3-16.36 16.36-16.36 42.99 0 59.35 16.37 16.36 42.99 16.36 59.36 0 16.36-16.36 16.36-42.99 0-59.35-7.93-7.94-18.47-12.3-29.68-12.3z" fill="#5E125C" p-id="2582"></path><path d="M525.72 693.03c-4.3 0-8.6-1.64-11.89-4.93L351.78 526.05c-6.57-6.57-6.57-17.21 0-23.78s17.21-6.57 23.78 0L537.6 664.32c6.57 6.57 6.57 17.21 0 23.78a16.759 16.759 0 0 1-11.88 4.93zM448.43 770.31c-4.3 0-8.6-1.64-11.89-4.93L274.49 603.33c-6.57-6.57-6.57-17.21 0-23.78s17.21-6.57 23.78 0L460.32 741.6c6.57 6.57 6.57 17.21 0 23.78a16.757 16.757 0 0 1-11.89 4.93zM743.82 501.04c-52.52 0-101.9-20.45-139.04-57.6-6.57-6.57-6.57-17.21 0-23.78s17.21-6.57 23.78 0c30.79 30.79 71.72 47.74 115.26 47.74 43.54 0 84.47-16.95 115.26-47.74 63.55-63.55 63.55-166.96 0-230.52-63.57-63.54-166.97-63.54-230.52 0-22.08 22.09-37.28 49.8-43.94 80.14-1.99 9.08-10.95 14.84-20.03 12.82-9.07-1.99-14.81-10.96-12.82-20.03 8.05-36.63 26.37-70.07 53.01-96.71 76.64-76.66 201.4-76.68 278.07 0 76.66 76.67 76.66 201.41 0 278.07-37.13 37.16-86.51 57.61-139.03 57.61z" fill="#5E125C" p-id="2583"></path></svg>