<svg width="12" height="12" viewBox="0 0 12 12" fill="none" xmlns="http://www.w3.org/2000/svg">
<g clip-path="url(#clip0)">
<path d="M9.9998 11.4502C9.9498 11.4502 9.89981 11.4502 9.8498 11.4502C8.2498 11.2502 6.6498 10.7002 5.2998 9.8502C4.0498 9.0502 2.9498 7.9502 2.1498 6.7002C1.2498 5.3502 0.699805 3.7502 0.549805 2.1502C0.549805 1.7502 0.649805 1.3502 0.899805 1.0502C1.1498 0.750195 1.4998 0.550195 1.8998 0.500195C1.9498 0.500195 1.9998 0.500195 2.0498 0.500195H3.5498C4.2998 0.500195 4.9498 1.0502 5.0498 1.8002C5.0998 2.2502 5.1998 2.7002 5.3498 3.1002C5.5498 3.6502 5.3998 4.2502 4.9998 4.7002L4.6498 5.0502C5.2498 5.9502 5.9998 6.7502 6.9498 7.3502L7.2998 7.0002C7.6998 6.6002 8.3498 6.4502 8.8998 6.6502C9.2998 6.8002 9.7498 6.9002 10.1998 6.9502C10.9498 7.0502 11.4998 7.7002 11.4998 8.4502V9.9502C11.4998 10.3502 11.3498 10.7502 11.0498 11.0002C10.7498 11.2502 10.3998 11.4502 9.9998 11.4502ZM3.5498 1.5002H2.0498C1.8998 1.5002 1.7498 1.6002 1.6498 1.7002C1.5998 1.8002 1.5498 1.9002 1.5498 2.0502C1.6998 3.5002 2.1998 4.9002 2.9998 6.1502C3.7498 7.3002 4.6998 8.3002 5.8498 9.0002C7.0998 9.8002 8.4998 10.3002 9.9498 10.4502C10.1498 10.4502 10.2498 10.4002 10.3498 10.3002C10.4498 10.2002 10.4998 10.1002 10.4998 9.9502V8.4502C10.4998 8.2002 10.2998 8.0002 10.0498 7.9502C9.5498 7.9002 9.0498 7.7502 8.5498 7.5502C8.3498 7.5002 8.1498 7.5002 7.9998 7.6502L7.3498 8.3002C7.1998 8.4502 6.9498 8.5002 6.7498 8.4002C5.3998 7.6502 4.2998 6.5502 3.5498 5.2002C3.4998 5.0002 3.5498 4.7502 3.6998 4.6002L4.3498 3.9502C4.4498 3.8502 4.4998 3.6002 4.4498 3.4502C4.2498 2.9502 4.1498 2.4502 4.0498 1.9502C4.0498 1.7002 3.7998 1.5002 3.5498 1.5002ZM9.4998 5.0002C9.2498 5.0002 9.0498 4.8502 8.9998 4.6002C8.8498 3.8002 8.1998 3.2002 7.3998 3.0002C7.1498 2.9502 6.9498 2.7002 6.9998 2.4002C7.0498 2.1502 7.2998 1.9502 7.5998 2.0002C8.7998 2.2502 9.7498 3.1502 9.9498 4.3502C9.9998 4.6002 9.8498 4.9002 9.5498 4.9502C9.5498 4.9502 9.5498 5.0002 9.4998 5.0002ZM11.4998 4.9502C11.2498 4.9502 11.0498 4.7502 10.9998 4.5002C10.7998 2.6502 9.3498 1.2002 7.4498 0.950195C7.1998 0.900195 6.9998 0.650195 6.9998 0.400195C6.9998 0.150195 7.2998 -0.0498047 7.5498 -0.0498047C9.89981 0.200195 11.6998 2.0002 11.9498 4.3502C11.9998 4.6002 11.7998 4.8502 11.4998 4.9002C11.5498 4.9502 11.4998 4.9502 11.4998 4.9502Z" fill="black"/>
</g>
<defs>
<clipPath id="clip0">
<rect width="12" height="12" fill="white"/>
</clipPath>
</defs>
</svg>

