<?xml version="1.0" standalone="no"?><!DOCTYPE svg PUBLIC "-//W3C//DTD SVG 1.1//EN" "http://www.w3.org/Graphics/SVG/1.1/DTD/svg11.dtd"><svg t="1596198356679" class="icon" viewBox="0 0 1024 1024" version="1.1" xmlns="http://www.w3.org/2000/svg" p-id="1626" xmlns:xlink="http://www.w3.org/1999/xlink" width="200" height="200"><defs><style type="text/css"></style></defs><path d="M304.44 496.21c-8.95 0-16.21-7.26-16.21-16.21 0-33.33 6.84-65.55 20.33-95.75 3.64-8.18 13.24-11.84 21.41-8.19 8.18 3.65 11.84 13.24 8.19 21.41-11.62 26.02-17.51 53.79-17.51 82.54-0.01 8.95-7.26 16.2-16.21 16.2z" fill="#FFFFFF" p-id="1627"></path><path d="M282.02 511.43V134.38c0-34.83 28.24-63.07 63.07-63.07H703.8c34.83 0 63.07 28.24 63.07 63.07v754.1c0 34.83-28.24 63.07-63.07 63.07H343.97c-34.83 0-63.07-28.24-63.07-63.07v-212" fill="#995D91" p-id="1628"></path><path d="M262.57 639.8c-10.13 0-18.34-8.21-18.34-18.34v-55.01c0-10.13 8.21-18.34 18.34-18.34s18.34 8.21 18.34 18.34v55.01c-0.01 10.13-8.22 18.34-18.34 18.34z" fill="#5E125C" p-id="1629"></path><path d="M519.3 878.2m-27.51 0a27.51 27.51 0 1 0 55.02 0 27.51 27.51 0 1 0-55.02 0Z" fill="#5E125C" p-id="1630"></path><path d="M748.53 814.01H280.9V93.84c0-2.93 2.38-5.31 5.31-5.31h457.01c2.93 0 5.31 2.38 5.31 5.31v720.17z" fill="#E6CFE7" p-id="1631"></path><path d="M280.9 71.31h467.63v65.92H280.9z" fill="#995D91" p-id="1632"></path><path d="M666.01 832.35H280.9c-10.13 0-18.34-8.21-18.34-18.34s8.21-18.34 18.34-18.34H666c10.13 0 18.34 8.21 18.34 18.34s-8.2 18.34-18.33 18.34zM757.7 153.83H280.9c-10.13 0-18.34-8.21-18.34-18.34 0-10.13 8.21-18.34 18.34-18.34h476.8c10.13 0 18.34 8.21 18.34 18.34 0 10.13-8.21 18.34-18.34 18.34z" fill="#5E125C" p-id="1633"></path><path d="M703.81 969.89H325.63c-44.89 0-81.4-36.52-81.4-81.41v-212c0-10.13 8.21-18.34 18.34-18.34s18.34 8.21 18.34 18.34v212.01c0 24.66 20.07 44.73 44.73 44.73h378.17c24.66 0 44.73-20.07 44.73-44.73v-754.1c0-24.66-20.07-44.73-44.73-44.73H326.75c-24.66 0-44.73 20.07-44.73 44.73v377.05c0 10.13-8.21 18.34-18.34 18.34-10.13 0-18.34-8.21-18.34-18.34V134.38c0-44.89 36.52-81.41 81.4-81.41h377.05c44.89 0 81.4 36.52 81.4 81.41v754.1c0.02 44.89-36.5 81.41-81.38 81.41z" fill="#5E125C" p-id="1634"></path><path d="M748.53 199.5v-45.66H282.02c-0.62 0-1.12 0.5-1.12 1.12v510.53c157.69-158.47 316.37-316.9 467.63-465.99z" fill="#FFFFFF" opacity=".5" p-id="1635"></path></svg>