<svg width="90" height="77" viewBox="0 0 90 77" fill="none" xmlns="http://www.w3.org/2000/svg">
<path opacity="0.2" fill-rule="evenodd" clip-rule="evenodd" d="M34.6154 14C38.4369 14 41.5385 10.864 41.5385 7C41.5385 3.136 38.4369 0 34.6154 0C15.5008 0 0 15.673 0 35V63C0 70.735 6.20308 77 13.8462 77H27.6923C35.3423 77 41.5385 70.735 41.5385 63V49C41.5385 41.265 35.3423 35 27.6923 35H13.8462C13.8462 23.401 23.1438 14 34.6154 14ZM76.1538 35H62.3077C62.3077 23.401 71.6054 14 83.0769 14C86.8985 14 90 10.864 90 7C90 3.136 86.8985 0 83.0769 0C63.9623 0 48.4615 15.673 48.4615 35V63C48.4615 70.735 54.6646 77 62.3077 77H76.1538C83.8038 77 90 70.735 90 63V49C90 41.265 83.8038 35 76.1538 35Z" fill="#FFA900"/>
</svg>
