<svg width="90" height="77" viewBox="0 0 90 77" fill="none" xmlns="http://www.w3.org/2000/svg">
<path opacity="0.2" fill-rule="evenodd" clip-rule="evenodd" d="M34.6154 14C38.4369 14 41.5385 10.864 41.5385 7C41.5385 3.136 38.4369 0 34.6154 0C15.5008 0 0 15.673 0 35V63C0 70.735 6.20308 77 13.8462 77H27.6923C35.3423 77 41.5385 70.735 41.5385 63V49C41.5385 41.265 35.3423 35 27.6923 35H13.8462C13.8462 23.401 23.1438 14 34.6154 14ZM76.1542 35H62.3081C62.3081 23.401 71.6058 14 83.0773 14C86.8988 14 90.0004 10.864 90.0004 7C90.0004 3.136 86.8988 0 83.0773 0C63.9627 0 48.4619 15.673 48.4619 35V63C48.4619 70.735 54.665 77 62.3081 77H76.1542C83.8042 77 90.0004 70.735 90.0004 63V49C90.0004 41.265 83.8042 35 76.1542 35Z" fill="#5289F5"/>
</svg>