<svg width="27" height="24" viewBox="0 0 27 24" fill="none" xmlns="http://www.w3.org/2000/svg">
<path fill-rule="evenodd" clip-rule="evenodd" d="M4.49042 4.41634C3.77351 4.41634 3.19235 4.90137 3.19235 5.49967V20.6663C3.19235 21.2646 3.77351 21.7497 4.49042 21.7497H22.6635C23.3804 21.7497 23.9616 21.2646 23.9616 20.6663V5.49967C23.9616 4.90137 23.3804 4.41634 22.6635 4.41634H4.49042ZM0.596191 5.49967C0.596191 3.70475 2.3397 2.24967 4.49042 2.24967H22.6635C24.8142 2.24967 26.5577 3.70475 26.5577 5.49967V20.6663C26.5577 22.4613 24.8142 23.9163 22.6635 23.9163H4.49042C2.3397 23.9163 0.596191 22.4613 0.596191 20.6663V5.49967Z" fill="#333333"/>
<path fill-rule="evenodd" clip-rule="evenodd" d="M18.7693 0.0830078C19.4862 0.0830078 20.0673 0.568033 20.0673 1.16634V5.49967C20.0673 6.09798 19.4862 6.58301 18.7693 6.58301C18.0524 6.58301 17.4712 6.09798 17.4712 5.49967V1.16634C17.4712 0.568033 18.0524 0.0830078 18.7693 0.0830078Z" fill="#333333"/>
<path fill-rule="evenodd" clip-rule="evenodd" d="M8.38465 0.0830078C9.10156 0.0830078 9.68273 0.568033 9.68273 1.16634V5.49967C9.68273 6.09798 9.10156 6.58301 8.38465 6.58301C7.66775 6.58301 7.08658 6.09798 7.08658 5.49967V1.16634C7.08658 0.568033 7.66775 0.0830078 8.38465 0.0830078Z" fill="#333333"/>
<path fill-rule="evenodd" clip-rule="evenodd" d="M0.596191 9.83301C0.596191 9.2347 1.17736 8.74967 1.89427 8.74967H25.2597C25.9766 8.74967 26.5577 9.2347 26.5577 9.83301C26.5577 10.4313 25.9766 10.9163 25.2597 10.9163H1.89427C1.17736 10.9163 0.596191 10.4313 0.596191 9.83301Z" fill="#333333"/>
</svg>
