<?xml version="1.0" standalone="no"?><!DOCTYPE svg PUBLIC "-//W3C//DTD SVG 1.1//EN" "http://www.w3.org/Graphics/SVG/1.1/DTD/svg11.dtd"><svg t="1596198444788" class="icon" viewBox="0 0 1024 1024" version="1.1" xmlns="http://www.w3.org/2000/svg" p-id="2409" xmlns:xlink="http://www.w3.org/1999/xlink" width="200" height="200"><defs><style type="text/css"></style></defs><path d="M304.44 496.21c-8.95 0-16.21-7.26-16.21-16.21 0-33.33 6.84-65.55 20.33-95.75 3.64-8.18 13.24-11.84 21.41-8.19 8.18 3.65 11.84 13.24 8.19 21.41-11.62 26.02-17.51 53.79-17.51 82.54-0.01 8.95-7.26 16.2-16.21 16.2z" fill="#FFFFFF" p-id="2410"></path><path d="M853.03 865v-52.96c0-120.01-97.29-217.3-217.3-217.3h-242.8c-120.36 0-218.84 98.48-218.84 218.84V865c0 35.91 29.11 65.01 65.01 65.01h548.91c35.92 0 65.02-29.1 65.02-65.01z" fill="#E2696C" p-id="2411"></path><path d="M459.99 598.44h-67.06c-120.01 0-219 97.29-219 217.3v117.98h67.06V815.74c0-120.02 98.99-217.3 219-217.3z" fill="#FFFFFF" p-id="2412"></path><path d="M635.73 598.44h-242.8c-60.6 0-115.63 24.98-155.36 65.13 32.62 65.71 100.37 110.89 178.71 110.89H624.9c74.81 0 139.22-44.34 168.52-108.14-39.6-41.78-95.58-67.88-157.69-67.88z" fill="#E2696C" opacity=".5" p-id="2413"></path><path d="M789.42 946.78H237.71c-44.32 0-80.37-36.06-80.37-80.37 0-9.26 7.51-16.76 16.76-16.76s16.76 7.51 16.76 16.76c0 25.83 21.01 46.85 46.85 46.85h551.72c25.83 0 46.85-21.01 46.85-46.85v-54.37c0-110.58-89.96-200.54-200.54-200.54h-242.8c-58.22 0-113.75 25.4-152.32 69.67a206.304 206.304 0 0 0-17.5 23.25c-4.79 7.41-9.14 15.23-12.95 23.23-3.98 8.37-14.01 11.92-22.33 7.96-8.37-3.97-11.93-13.96-7.96-22.33 4.43-9.32 9.5-18.43 15.08-27.06a239.9 239.9 0 0 1 20.37-27.06c44.95-51.59 109.69-81.18 177.61-81.18h242.8c129.06 0 234.06 105 234.06 234.06v54.37c0 44.31-36.06 80.37-80.38 80.37z" fill="#5E125C" p-id="2414"></path><path d="M316.59 930.01c-9.26 0-16.76-7.51-16.76-16.76v-92.2c0-9.26 7.51-16.76 16.76-16.76s16.76 7.51 16.76 16.76v92.2c0 9.26-7.5 16.76-16.76 16.76zM718.92 930.01c-9.26 0-16.76-7.51-16.76-16.76v-92.2c0-9.26 7.51-16.76 16.76-16.76 9.26 0 16.76 7.51 16.76 16.76v92.2c0.01 9.26-7.5 16.76-16.76 16.76z" fill="#5E125C" p-id="2415"></path><path d="M509.37 703.7m-75.44 0a75.44 75.44 0 1 0 150.88 0 75.44 75.44 0 1 0-150.88 0Z" fill="#FFCD8F" p-id="2416"></path><path d="M509.37 795.9c-50.84 0-92.2-41.36-92.2-92.2s41.36-92.2 92.2-92.2 92.2 41.36 92.2 92.2-41.36 92.2-92.2 92.2z m0-150.87c-32.35 0-58.67 26.32-58.67 58.67s26.32 58.67 58.67 58.67 58.67-26.32 58.67-58.67c0.01-32.35-26.32-58.67-58.67-58.67z" fill="#5E125C" p-id="2417"></path><path d="M509.37 208.34c-126.42 0-228.9 102.48-228.9 228.9 0 75.47 26.22 143.59 85.02 196.2 20.71 18.53 56.1 36.31 71.94 45.78 28.04 16.77 44.69 32.7 71.94 32.7s43.9-15.93 71.94-32.7c15.84-9.47 51.23-27.25 71.94-45.78 58.8-52.61 85.02-120.73 85.02-196.2 0.01-126.41-102.48-228.9-228.9-228.9z" fill="#FFE2C0" p-id="2418"></path><path d="M509.37 728.69c-26.12 0-44.38-11.88-63.72-24.45-5.21-3.39-10.75-6.99-16.83-10.62-3.49-2.09-7.96-4.59-13.02-7.42-18.61-10.43-44.11-24.7-61.49-40.26-60.12-53.79-90.61-124.01-90.61-208.69 0-135.46 110.2-245.67 245.66-245.67s245.66 110.21 245.66 245.67c0 84.68-30.48 154.89-90.6 208.69-17.39 15.55-42.88 29.83-61.5 40.26-5.06 2.83-9.54 5.34-13.02 7.42-6.08 3.63-11.62 7.24-16.83 10.62-19.31 12.57-37.58 24.45-63.7 24.45z m0-503.59c-116.97 0-212.13 95.16-212.13 212.14 0 74.73 26.73 136.54 79.43 183.71 14.63 13.09 38.26 26.32 55.52 35.98 5.38 3.02 10.13 5.68 13.84 7.9 6.47 3.87 12.35 7.69 17.9 11.3 17.62 11.46 29.25 19.03 45.44 19.03s27.82-7.57 45.44-19.03c5.55-3.6 11.44-7.42 17.9-11.3 3.71-2.22 8.46-4.88 13.84-7.9 17.26-9.66 40.89-22.89 55.53-35.98 52.7-47.16 79.42-108.97 79.42-183.71 0.01-116.97-95.16-212.14-212.13-212.14z" fill="#5E125C" p-id="2419"></path><path d="M760.39 182.51c-42.67-57.6-185.02-125.8-275.06-79.45-15.4 7.93-46.62 28.78-55.61 39.73-1.49 1.81-2.85 3.63-4.18 5.46-28.24-18.27-99.57-42.16-170.61 34.27-95.7 102.95-79.45 309.85-7.95 429.03S397.93 691 397.93 691l-47.67-47.67c-23.83-23.84-39.72-111.23-39.72-158.9s23.84-87.39 79.45-119.17c32.93-18.82 49.08-40.36 56.83-54.85 16.79 8.1 44.68 20.46 78.24 31.02 32.09 10.1 79.84 12.16 100.27 23.84 55.61 31.78 79.45 71.51 79.45 119.17 0 47.67-15.89 135.06-39.73 158.9l-47.67 47.67s79.45 39.72 150.95-79.45 75.73-316.1-7.94-429.05z" fill="#FFC963" p-id="2420"></path><path d="M760.39 182.51c-37.72-50.92-153.31-110.06-241.82-91.09 69.74 12.35 138.84 53.9 166.39 91.09 83.67 112.95 79.45 309.85 7.95 429.03-22.81 38.02-46.42 59.82-68.01 71.94l-7.51 7.51s79.45 39.72 150.95-79.45 75.72-316.08-7.95-429.03z" fill="#FFC963" p-id="2421"></path><path d="M322.42 611.54c-71.5-119.17-87.76-326.08 7.95-429.03 23.43-25.21 46.88-39.45 68.82-46.64-35.26-11.57-89.83-11.92-144.26 46.64-95.7 102.95-79.45 309.85-7.95 429.03s150.95 79.45 150.95 79.45l-7.51-7.51c-21.58-12.12-45.19-33.92-68-71.94z" fill="#FFFFFF" p-id="2422"></path><path d="M649.8 714.12c-22.81 0-37.89-7.13-39.91-8.14a16.756 16.756 0 0 1-9.05-12.31 16.75 16.75 0 0 1 4.7-14.54l47.67-47.67c17.93-17.93 34.81-98.05 34.81-147.04 0-43.69-22.56-76.94-71-104.63-9.1-5.2-29.02-8.61-48.27-11.91-16.66-2.86-33.88-5.81-48.72-10.49-26.41-8.32-49.48-17.72-66.85-25.56-10.57 14.82-27.62 32.38-54.87 47.95-48.44 27.68-71 60.93-71 104.63 0 49.01 16.88 129.11 34.81 147.04l47.67 47.67c3.81 3.81 5.56 9.22 4.7 14.54a16.78 16.78 0 0 1-9.05 12.31c-0.95 0.47-94.24 45.15-172.83-85.82-75.58-125.98-90.05-341.39 10.04-449.06 62.88-67.65 132.8-67.06 179.09-44.24 14.56-13.94 43.09-32.1 55.92-38.7 44.38-22.86 104.24-22.9 168.56-0.16 53.52 18.93 103.63 52.12 127.64 84.53 83.08 112.16 87.13 317.15 8.85 447.63-40.21 67.01-84.09 87.18-113.82 92.32-6.82 1.18-13.22 1.65-19.09 1.65zM446.83 293.63c2.45 0 4.93 0.53 7.28 1.66 16.9 8.15 43.82 20.01 75.99 30.14 12.67 3.99 28.76 6.74 44.32 9.41 23.14 3.96 45 7.71 59.24 15.85 59.15 33.8 87.9 77.55 87.9 133.73 0 45.26-14.91 141.02-44.64 170.75l-25.47 25.47c25.03-0.59 64.25-13.94 102.52-77.73 72.04-120.06 68.82-308.02-7.05-410.42C709.25 141.63 576.14 75.16 493 117.96c-15.16 7.8-43.76 27.46-50.34 35.47-1.26 1.54-2.43 3.12-3.59 4.71-5.23 7.15-15.16 9.01-22.63 4.18-12.49-8.08-78.43-44.55-149.23 31.6-87.39 94.01-75.17 293.46-5.85 408.99 38.24 63.73 77.43 77.12 102.5 77.71l-25.44-25.45c-29.72-29.72-44.64-125.48-44.64-170.75 0-56.19 28.75-99.94 87.9-133.73 29.25-16.72 43.54-35.44 50.37-48.2 3-5.64 8.79-8.86 14.78-8.86zM169.87 830.34c-9.26 0-16.76-7.51-16.76-16.76 0-15.49 1.53-31.01 4.56-46.11 1.82-9.07 10.61-14.95 19.73-13.15 9.08 1.82 14.96 10.65 13.15 19.73-2.59 12.94-3.9 26.24-3.9 39.53-0.02 9.25-7.53 16.76-16.78 16.76z" fill="#5E125C" p-id="2423"></path><path d="M392.03 552.83m-25.15 0a25.15 25.15 0 1 0 50.3 0 25.15 25.15 0 1 0-50.3 0Z" fill="#E2696C" p-id="2424"></path><path d="M635.1 552.83m-25.15 0a25.15 25.15 0 1 0 50.3 0 25.15 25.15 0 1 0-50.3 0Z" fill="#E2696C" p-id="2425"></path><path d="M509.54 621.3c-20.49 0-38-9.59-48.06-26.3-4.77-7.94-2.21-18.24 5.72-23.01 7.96-4.79 18.24-2.21 23.01 5.72 4.01 6.68 10.52 10.06 19.33 10.06 8.81 0 15.32-3.38 19.33-10.06 4.77-7.92 15.05-10.51 23.01-5.72 7.93 4.77 10.49 15.07 5.72 23.01-10.07 16.71-27.57 26.3-48.06 26.3zM584.8 523.01c-2.21 0-4.46-0.44-6.62-1.38-8.5-3.66-12.43-13.52-8.77-22.03 1.07-2.5 11.16-24.67 34.23-34.04 19.14-7.78 34.62-3.51 42.02 2.52 7.19 5.84 8.28 16.4 2.44 23.57-5.48 6.78-15.19 8.14-22.29 3.39-0.76-0.21-3.76-0.77-9.55 1.57-10.35 4.21-16.01 16.13-16.06 16.25-2.72 6.35-8.91 10.15-15.4 10.15z m39.78-28.87z m-0.03-0.02c0.01 0 0.01 0 0 0 0.01 0 0.01 0 0 0z m2.01-0.02v0zM433.95 523.01c-6.46 0-12.6-3.76-15.36-10.03-0.23-0.5-5.73-12.14-16.11-16.36-5.8-2.35-8.79-1.79-9.55-1.57-7.1 4.75-16.8 3.39-22.29-3.39-5.84-7.18-4.75-17.74 2.44-23.57 7.4-6.03 22.86-10.32 42.02-2.52 23.07 9.37 33.16 31.55 34.23 34.04 3.66 8.5-0.27 18.37-8.77 22.03-2.15 0.92-4.4 1.37-6.61 1.37z m-39.78-28.87z m0.03-0.02s-0.01 0 0 0c-0.01 0-0.01 0 0 0z m-2.33-0.02v0zM450.68 321.83c-7.64 0-14.54-5.25-16.32-13.01l-16.78-73.01c-2.07-9.03 3.56-18.02 12.58-20.1 9.06-2.04 18.02 3.56 20.1 12.58l16.78 73.01c2.07 9.03-3.56 18.02-12.58 20.1-1.27 0.29-2.53 0.43-3.78 0.43zM399.57 451.41h-31.86c-5.09 0-9.22-4.13-9.22-9.22v-8.12c0-4.51 3.26-8.35 7.7-9.09l31.86-5.31c5.62-0.94 10.73 3.4 10.73 9.09v13.43c0.01 5.1-4.12 9.22-9.21 9.22zM619.17 451.41h31.86c5.09 0 9.22-4.13 9.22-9.22v-8.12c0-4.51-3.26-8.35-7.7-9.09l-31.86-5.31c-5.62-0.94-10.73 3.4-10.73 9.09v13.43c0 5.1 4.12 9.22 9.21 9.22z" fill="#5E125C" p-id="2426"></path></svg>