<?xml version="1.0" standalone="no"?><!DOCTYPE svg PUBLIC "-//W3C//DTD SVG 1.1//EN" "http://www.w3.org/Graphics/SVG/1.1/DTD/svg11.dtd"><svg t="1596199096812" class="icon" viewBox="0 0 1024 1024" version="1.1" xmlns="http://www.w3.org/2000/svg" p-id="1731" width="200" height="200" xmlns:xlink="http://www.w3.org/1999/xlink"><defs><style type="text/css"></style></defs><path d="M943 382.86l-213.59-51.89-213.63-51.07c-1.74-0.44-3.62-0.48-5.36-0.04l-213.8 51.11L83.08 382.3c-4.79 0.78-8.54 4.53-9.32 9.28-1 6.14 3.18 11.94 9.32 12.94l118.6 28.45v157.47a37.603 37.603 0 0 0 10.46 27.01c7.41 7.19 16.99 11.63 27.28 12.68 90.72 9.93 181.95 14.9 273.24 14.81 91.28 0.04 182.52-4.88 273.24-14.81 10.28-1.05 19.91-5.49 27.32-12.68 7.19-7.15 11.24-16.86 11.2-27.01V432.97l54.68-13.03v173.33c-5.71 1.79-10.94 4.84-15.25 8.98l-0.7 0.65a38.422 38.422 0 0 0-11.33 27.23v69.71c0 10.24 4.1 20.04 11.33 27.23 7.23 7.23 16.99 11.33 27.23 11.33 10.2 0 20-4.1 27.19-11.33 7.28-7.19 11.33-16.99 11.37-27.23v-69.5c0-17.04-11.07-32.07-27.32-37.08v-178.2l41.39-9.93c4.75-0.78 8.5-4.53 9.28-9.32 0.99-6.15-3.14-11.9-9.29-12.95zM802.14 590.44c0 4.14-1.66 8.1-4.58 10.98-3.79 3.57-8.63 5.8-13.81 6.23-89.89 9.89-180.25 14.86-270.71 14.81-90.45 0.04-180.86-4.88-270.75-14.81-5.14-0.44-10.02-2.66-13.77-6.23a15.307 15.307 0 0 1-4.62-10.98V438.42l72.72 17.47 213.72 51.37h5.45l213.63-51.37 72.72-17.47v152.02z m8.67-177.25l-86.66 20.83-211.1 50.8-211.15-50.8-85.53-20.43-2.09-0.52-80.65-19.35 168.27-40.48 211.15-50.85 211.1 50.85 168.27 40.3-3.62 0.91-2.05 0.52-75.94 18.22z m95.55 216.94v69.5c0 4.23-1.66 8.28-4.66 11.28a15.914 15.914 0 0 1-11.28 4.66c-8.8 0-15.9-7.1-15.9-15.95v-69.5c0-4.23 1.66-8.28 4.66-11.29l0.44-0.44c2.96-2.74 6.8-4.23 10.81-4.23 8.78 0.07 15.88 7.17 15.93 15.97z" p-id="1732"></path><path d="M906.36 630.13v69.5c0 4.23-1.66 8.28-4.66 11.28a15.914 15.914 0 0 1-11.28 4.66c-8.8 0-15.9-7.1-15.9-15.95v-69.5c0-4.23 1.66-8.28 4.66-11.29l0.44-0.44c2.96-2.74 6.8-4.23 10.81-4.23 8.78 0.07 15.88 7.17 15.93 15.97z" fill="#A0EA9D" p-id="1733"></path><path d="M802.14 438.42v152.02c0 4.14-1.66 8.1-4.58 10.98-3.79 3.57-8.63 5.8-13.81 6.23-89.89 9.89-180.25 14.86-270.71 14.81-90.45 0.04-180.86-4.88-270.75-14.81-5.14-0.44-10.02-2.66-13.77-6.23a15.307 15.307 0 0 1-4.62-10.98V438.42l72.72 17.47 213.72 51.37h5.45l213.63-51.37 72.72-17.47z" fill="#FD5E7A" p-id="1734"></path><path d="M892.42 393.54l-3.62 0.91-2.05 0.53-75.94 18.21-86.67 20.83-211.1 50.8-211.14-50.8-85.53-20.44-2.1-0.52-80.65-19.35 168.28-40.47 211.14-50.85 211.1 50.85z" fill="#80D8FF" p-id="1735"></path></svg>